# xmcd
#
# Track frame offsets:
#	150
#	15335
#	33272
#	51034
#	72335
#	88658
#	106176
#	123118
#	137883
#	153179
#	172881
#	186726
#	201701
#	218689
#	238254
#
# Disc length: 3485 seconds
#
# Revision: 0
# Processed by: cddbd v1.5PL3 Copyright (c) Steve Scherf et al.
# Submitted via: dBpowerAMP V4.0
#
DISCID=cf0d9b0f
DTITLE=Marie Burns - Free Little Bird
DYEAR=1900
DGENRE=Country
TTITLE0=Dance With The Gypsies
TTITLE1=Ramblin Woman
TTITLE2=Restaurant Boy
TTITLE3=Auction At The Old Home Place
TTITLE4=Stepping Stone
TTITLE5=What Are You Doing Tonight?
TTITLE6=Living In The Good Old Days
TTITLE7=Free little Bird
TTITLE8=River Of Sorrow
TTITLE9=Here's The Keys
TTITLE10=Just One Night
TTITLE11=Dancing In the Moonlight
TTITLE12=New Kind Of Old Fashioned Girl
TTITLE13=Dropping Like Flies
TTITLE14=Comfort from the Cold
EXTD=
EXTT0=
EXTT1=
EXTT2=
EXTT3=
EXTT4=
EXTT5=
EXTT6=
EXTT7=
EXTT8=
EXTT9=
EXTT10=
EXTT11=
EXTT12=
EXTT13=
EXTT14=
PLAYORDER=
